# xmcd CD database file
#
# Track frame offsets:
#	150
#	19369
#	34491
#	50405
#	72398
#	91127
#	107151
#	121901
#	140292
#	151365
#	168140
#	181349
#	200906
#	222484
#	239185
#	251758
#
# Disc length: 3687 seconds
#
# Revision: 0
# Processed by: cddbd v1.5.1PL0 Copyright (c) Steve Scherf et al.
# Submitted via: CdAid (MTCDDB.DLL V2003.12.21)
#
DISCID=f20e6510
DTITLE=Banda Calypso - Áudio do Segundo DVD
DYEAR=2005
DGENRE=Latin
TTITLE0=Pra Te Esquecer
TTITLE1=Nenê
TTITLE2=Anjo
TTITLE3=Primeiro Amor
TTITLE4=Disse Adeus
TTITLE5=Tic TacTitle  
TTITLE6=Dois Corações
TTITLE7=Imagino
TTITLE8=Lágrimas de Sangue
TTITLE9=Love You Mon Amour
TTITLE10=Lambada Complicada
TTITLE11=Homem Perfeito
TTITLE12=Canto de Carimbó - Lua Luar - Canto de Atravessar
TTITLE13=Fala Pra Mim
TTITLE14=Brincou Comigo
TTITLE15=Paquera
EXTD=ID3G:  86 YEAR: 2005
EXTT0=
EXTT1=
EXTT2=
EXTT3=
EXTT4=
EXTT5=
EXTT6=
EXTT7=
EXTT8=
EXTT9=
EXTT10=
EXTT11=
EXTT12=
EXTT13=
EXTT14=
EXTT15=
PLAYORDER=
